<svg viewBox="0 0 48 48" xmlns="http://www.w3.org/2000/svg">
<path d="M7.15541 6.2703C10.029 3.3336 13.6131 1.14266 17.6161 0L19.7441 8C17.0755 8.76175 14.6861 10.2223 12.7704 12.18L7.15541 6.2703Z" fill="#FAFAFA"/>
<path d="M0.767139 17.7332C0.266431 19.7353 0 21.8354 0 24C0 26.1642 0.266339 28.2639 0.76688 30.2658L8.51122 28.177C8.17755 26.8425 8 25.4428 8 24C8 22.5569 8.17764 21.1568 8.51147 19.8219L0.767139 17.7332Z" fill="#FAFAFA"/>
<path d="M7.1547 41.729C10.0284 44.666 13.6128 46.8572 17.6161 48L19.7441 40C17.0752 39.2382 14.6855 37.7773 12.7697 35.8192L7.1547 41.729Z" fill="#FAFAFA"/>
<path d="M30.3839 48C34.3869 46.8573 37.971 44.6664 40.8446 41.7297L35.2296 35.82C33.3139 37.7777 30.9245 39.2382 28.2559 40L30.3839 48Z" fill="#FAFAFA"/>
<path d="M48 24C48 26.1646 47.7336 28.2647 47.2329 30.2668L39.4885 28.1781C39.8224 26.8432 40 25.4431 40 24C40 22.5572 39.8225 21.1575 39.4888 19.823L47.2331 17.7342C47.7337 19.7361 48 21.8358 48 24Z" fill="#FAFAFA"/>
<path d="M30.3839 0C34.3872 1.14275 37.9716 3.33396 40.8453 6.27103L35.2303 12.1808C33.3145 10.2227 30.9248 8.76184 28.2559 8L30.3839 0Z" fill="#FAFAFA"/>
</svg>
